<?xml version="1.0" encoding="utf-8"?>
<!-- Generator: Adobe Illustrator 16.0.4, SVG Export Plug-In . SVG Version: 6.00 Build 0)  -->
<svg version="1.2" baseProfile="tiny" id="Слой_1" xmlns="http://www.w3.org/2000/svg" x="0px" y="0px" width="1422.64px"
	height="729.104px" viewBox="0 0 1422.64 729.104" xml:space="preserve">
	<g>
		<g>
			<g>
				<path fill="#ffffff" d="M1022.572,592.317l-99.211-481.61C909.648,46.555,852.054,0,786.453,0h-35.475l9.898,46.131h25.576
				c43.98,0,82.588,31.221,91.758,74.06l106.762,518.264h90.375l-9.497-46.137H1022.572z" />
				<path fill="#ffffff" d="M1217.796,501.661c-62.701,0-113.725,51.014-113.725,113.729c0,62.698,51.023,113.714,113.725,113.714
				s113.727-51.016,113.727-113.714C1331.523,552.675,1280.498,501.661,1217.796,501.661z M1217.796,682.969
				c-37.271,0-67.576-30.328-67.576-67.579c0-37.259,30.305-67.582,67.576-67.582c37.27,0,67.582,30.323,67.582,67.582
				C1285.378,652.641,1255.066,682.969,1217.796,682.969z" />
				<path fill="#ffffff" d="M1380.078,446.42l-0.352-1.258c-12.767-40.039-49.605-66.945-91.63-66.945h-21.99
				c-18.162,0-34.102-12.888-37.889-30.647l-20.961-97.851c-8.199-38.241-42.502-65.976-81.602-65.976H977.621l9.838,46.138h138.195
				c17.479,0,32.82,12.415,36.486,29.5l20.938,97.833c1.59,7.435,4.168,14.47,7.549,21.003h-171.535l9.861,46.138h237.152h21.99
				c21.662,0,40.686,13.745,47.482,34.271l38.816,179.828h48.247L1380.078,446.42z" />
			</g>
		</g>
		<g>
			<path fill="#ffffff" d="M0,333.241h56.072l29.659,140.372h80.593l10.189,48.236H39.851L0,333.241z" />
			<path fill="#ffffff" d="M216.439,333.241h54.841L377.57,521.85h-58.211l-13.297-26.95h-57.958l-2.532,26.95h-56.34
			L216.439,333.241z M286.218,454.65l-28.654-58.326h-0.498l-5.252,58.326H286.218z" />
			<path fill="#ffffff" d="M352.645,333.241h109.237c16.805,0,32.005,4.472,45.611,13.416c13.538,9.029,22.373,22.533,26.512,40.509
			c2.107,9.976,1.909,19.396-0.594,28.255c-2.986,8.599-8.857,14.92-17.609,18.961c17.581,6.883,30.119,22.576,37.613,47.09
			c0.805,2.237,1.662,5.119,2.578,8.644c1.078,3.528,2.127,7.311,3.146,11.353c2.467,8.518,5.443,15.309,8.932,20.382h-56.172
			c-4.512-9.563-8.052-19.257-10.626-29.082c-1.16-4.652-2.622-9.264-4.385-13.832c-1.598-4.22-3.659-8.101-6.175-11.632
			c-2.43-3.532-5.589-6.335-9.478-8.404c-3.872-1.98-8.772-2.973-14.703-2.973h-31.869l13.929,65.923h-56.097L352.645,333.241z
			 M426.159,415.678h31.414c6.162,0.172,11.746-0.903,16.758-3.228c5.295-2.237,7.169-7.439,5.619-15.616
			c-1.291-6.105-4.272-10.751-8.936-13.938c-5.199-3.183-13.432-4.771-24.703-4.771h-28.087L426.159,415.678z" />
			<path fill="#ffffff" d="M551.455,333.241h92.146c30.201,0.516,53.605,10.191,70.226,29.027
			c16.164,18.662,26.771,40.336,31.814,65.019c13.496,61.84-10.893,93.36-73.159,94.562h-81.175L551.455,333.241z M637.187,473.613
			h21.972c8.904,0,15.623-1.68,20.157-5.046c4.617-3.363,7.795-7.418,9.539-12.163c1.625-4.919,2.412-10.051,2.365-15.401
			c-0.316-5.434-0.924-10.266-1.813-14.493c-0.712-3.362-1.849-7.546-3.404-12.553c-1.871-4.916-4.865-9.831-8.982-14.751
			c-3.97-5.004-9.327-9.273-16.065-12.812c-6.684-3.277-15.104-4.916-25.257-4.916H617.72L637.187,473.613z" />
			<path fill="#ffffff" d="M751.419,333.241h56.073l39.854,188.608h-56.074L751.419,333.241z" />
		</g>
		<g>
			<path fill="#ffffff"
				d="M539.754,239.815c-1.696-1.036-4.385-1.558-8.066-1.558h-9.174l2.59,12.264h10.261
			c2.012,0.056,3.835-0.296,5.472-1.054c1.729-0.729,2.343-2.43,1.832-5.1C542.251,242.374,541.274,240.858,539.754,239.815z" />
			<path fill="#ffffff" d="M780.765,204.07H400.949l21.518,100.655h379.818L780.765,204.07z M490.04,285.19h-18.312l-9.686-45.836
			h-16.659l-3.33-15.752h51.658l3.326,15.752h-16.681L490.04,285.19z M553.102,285.19c-1.473-3.121-2.629-6.285-3.467-9.498
			c-0.379-1.516-0.857-3.021-1.432-4.513c-0.524-1.38-1.197-2.647-2.015-3.799c-0.797-1.153-1.828-2.069-3.098-2.745
			c-1.265-0.646-2.863-0.971-4.802-0.971h-10.405l4.551,21.525H514.11l-13.012-61.588h35.674c5.487,0,10.452,1.459,14.892,4.381
			c4.422,2.95,7.307,7.359,8.658,13.229c0.69,3.256,0.626,6.334-0.192,9.227c-0.976,2.808-2.894,4.87-5.754,6.191
			c5.741,2.247,9.836,7.371,12.286,15.377c0.263,0.729,0.541,1.671,0.839,2.82c0.354,1.153,0.695,2.388,1.026,3.707
			c0.805,2.783,1.776,4.998,2.919,6.656H553.102z M616.106,285.19l-4.343-8.798h-18.927l-0.827,8.798h-18.394l8.883-61.588h17.91
			l34.707,61.588H616.106z M676.951,285.19l-25.342-33.663h-0.165l7.117,33.663h-17.303l-13.013-61.588h18.76l24.254,32.947h0.204
			l-6.962-32.947h17.304l13.014,61.588H676.951z M747.906,281.992c-4.972,3.171-11.033,4.73-18.181,4.673
			c-1.77,0-4.151-0.267-7.136-0.798c-3.013-0.505-6.172-1.502-9.474-2.995c-3.279-1.516-6.259-3.763-8.934-6.742
			c-2.682-2.865-4.619-6.742-5.819-11.633h18.265c0.326,1.549,0.825,2.899,1.504,4.054c1.159,1.771,2.722,2.951,4.699,3.54
			c1.897,0.621,3.77,0.932,5.624,0.932c1.717,0.058,3.41-0.308,5.068-1.096c1.621-0.814,2.231-2.318,1.826-4.508
			c-0.272-1.545-1.401-2.783-3.388-3.707c-2.062-0.871-5.859-1.994-11.383-3.37c-2.607-0.675-5.174-1.419-7.697-2.233
			c-2.639-0.817-5.081-1.855-7.338-3.121c-2.281-1.261-4.271-2.935-5.973-5.013c-1.724-1.937-2.911-4.437-3.556-7.497
			c-1.404-7.135-0.006-12.329,4.191-15.59c3.992-3.175,9.167-4.759,15.515-4.759c6.631-0.058,12.655,1.372,18.076,4.287
			c5.319,3.108,8.98,8.364,10.98,15.761h-17.351c-0.27-2.288-1.336-3.921-3.196-4.897c-1.842-1.004-3.754-1.508-5.735-1.508
			c-1.357,0-2.703,0.251-4.032,0.76c-0.595,0.28-1.063,0.69-1.414,1.224c-0.372,0.562-0.462,1.277-0.276,2.146
			c0.326,1.04,1.088,1.897,2.291,2.57c1.162,0.758,2.607,1.418,4.331,1.979c3.612,1.04,7.712,2.106,12.288,3.202
			c2.433,0.59,4.795,1.307,7.08,2.15c2.254,0.813,4.377,1.907,6.371,3.284c2.024,1.376,3.751,3.048,5.177,5.015
			c1.364,2.078,2.344,4.521,2.936,7.329C754.747,273.325,752.968,278.845,747.906,281.992z" />
			<polygon fill="#ffffff" points="595.763,244.2 594.051,263.247 605.284,263.247 595.93,244.2 		" />
		</g>
	</g>
</svg>